<?xml version="1.0" encoding="UTF-8"?>
<svg id="_レイヤー_1" data-name="レイヤー 1" xmlns="http://www.w3.org/2000/svg" viewBox="0 0 268.5 210.81">
  <defs>
    <style>
      .cls-1 {
        fill: #313739;
      }

      .cls-2 {
        fill: #c56738;
      }
    </style>
  </defs>
  <path class="cls-1" d="M136.24,210.73c-3.52.01-6.96-3.36-8.39-5.65l-7.25-11.65-61.48-96.11c-7.04-11-13.01-21.61-20.98-32.5l-.12,137.48c0,3.82-3.19,8.32-7.14,8.34l-22.9.15c-3.77.03-7.97-3.56-7.97-7.67V9.21C0,3.91,4.31.12,9.76.13l21.93.05c5.42.01,8.56,3.06,11.09,7.02l67.84,106.05,20.87,32.66.14-12.22h37.71s-.05,68.79-.05,68.79c0,3.59-3.47,8.16-7.27,8.18l-25.79.08Z"/>
  <path class="cls-2" d="M197.82,167.34c-6.45.75-14.95-3.38-15.02-10.11l-.45-41.09-43.9-.12c-7.26-.02-13.26-5.28-13.79-11.73-1.14-7.46,4.28-15.32,13.05-15.37l44.65-.23.33-40.45c.05-6.61,8.15-10.07,14.06-10.2,6.26-.14,14.52,3.76,14.6,10.56l.47,40.07,43.97.22c7.71.04,12.76,7.34,12.71,13.52-.05,6.21-4.93,13.45-12.71,13.48l-43.95.18-.15,39.19c-.03,6.92-6.43,11.97-13.87,12.08Z"/>
  <path class="cls-2" d="M169.22,71.12l-37.55.2.31-61.49c-.89-4.86,2.87-9.65,8.24-9.69L158.82,0c5.61-.04,9.62,3.04,10.4,8.4v62.72Z"/>
</svg>